HIERARCHY
ROOT Hips
{
 OFFSET 0.000000 0.000000 0.000000
 CHANNELS 6 Xposition Yposition Zposition Yrotation Xrotation Zrotation
 JOINT Chest
 {
  OFFSET 0.000000 9.588913 -0.003946
  CHANNELS 3 Yrotation Xrotation Zrotation
  JOINT Chest2
  {
   OFFSET 0.000000 9.541882 0.008053
   CHANNELS 3 Yrotation Xrotation Zrotation
   JOINT Chest3
   {
    OFFSET 0.000000 9.501360 0.000000
    CHANNELS 3 Yrotation Xrotation Zrotation
    JOINT Chest4
    {
     OFFSET 0.000000 9.491660 0.000000
     CHANNELS 3 Yrotation Xrotation Zrotation
     JOINT Neck
     {
      OFFSET 0.000000 14.331917 0.000000
      CHANNELS 3 Yrotation Xrotation Zrotation
      JOINT Head
      {
       OFFSET 0.000000 8.884799 0.017034
       CHANNELS 3 Yrotation Xrotation Zrotation
       End Site
       {
        OFFSET 0.000000 16.896195 0.008993
       }
      }
     }
     JOINT RightCollar
     {
      OFFSET -2.923010 9.499495 0.000000
      CHANNELS 3 Yrotation Xrotation Zrotation
      JOINT RightShoulder
      {
       OFFSET -13.795216 0.000000 0.000000
       CHANNELS 3 Yrotation Xrotation Zrotation
       JOINT RightElbow
       {
        OFFSET -30.272209 0.000000 0.000000
        CHANNELS 3 Yrotation Xrotation Zrotation
        JOINT RightWrist
        {
         OFFSET -24.478199 0.000000 0.000000
         CHANNELS 3 Yrotation Xrotation Zrotation
         End Site
         {
          OFFSET -18.090752 0.000000 0.000000
         }
        }
       }
      }
     }
     JOINT LeftCollar
     {
      OFFSET 2.923010 9.499495 0.000000
      CHANNELS 3 Yrotation Xrotation Zrotation
      JOINT LeftShoulder
      {
       OFFSET 13.795216 0.000000 0.000000
       CHANNELS 3 Yrotation Xrotation Zrotation
       JOINT LeftElbow
       {
        OFFSET 30.272209 0.000000 0.000000
        CHANNELS 3 Yrotation Xrotation Zrotation
        JOINT LeftWrist
        {
         OFFSET 24.478199 0.000000 0.000000
         CHANNELS 3 Yrotation Xrotation Zrotation
         End Site
         {
          OFFSET 18.090752 0.000000 0.000000
         }
        }
       }
      }
     }
    }
   }
  }
 }
 JOINT RightHip
 {
  OFFSET -7.826875 0.019532 0.001973
  CHANNELS 3 Yrotation Xrotation Zrotation
  JOINT RightKnee
  {
   OFFSET 0.000000 -40.546152 -0.001885
   CHANNELS 3 Yrotation Xrotation Zrotation
   JOINT RightAnkle
   {
    OFFSET 0.000000 -39.417092 -0.003189
    CHANNELS 3 Yrotation Xrotation Zrotation
    JOINT RightToe
    {
     OFFSET 0.000000 -7.579396 17.243563
     CHANNELS 3 Yrotation Xrotation Zrotation
     End Site
     {
      OFFSET 0.000000 -1.500329 6.694466
     }
    }
   }
  }
 }
 JOINT LeftHip
 {
  OFFSET 7.826875 0.019532 0.001973
  CHANNELS 3 Yrotation Xrotation Zrotation
  JOINT LeftKnee
  {
   OFFSET 0.000000 -40.546152 -0.001885
   CHANNELS 3 Yrotation Xrotation Zrotation
   JOINT LeftAnkle
   {
    OFFSET 0.000000 -39.417092 -0.003189
    CHANNELS 3 Yrotation Xrotation Zrotation
    JOINT LeftToe
    {
     OFFSET 0.000000 -7.579396 17.243563
     CHANNELS 3 Yrotation Xrotation Zrotation
     End Site
     {
      OFFSET 0.000000 -1.500329 6.694466
     }
    }
   }
  }
 }
}
MOTION
Frames: 17
Frame Time: 0.008333
0.000000 87.345680 0.000000 0.000000 -5.767889 0.000000 0.000000 11.653876 0.000000 0.000000 -5.885988 0.000000 0.000000 -0.000000 0.000000 0.000000 -0.000000 0.000000 0.000000 12.528808 0.000000 0.000000 0.711711 0.000000 0.000000 -0.000000 0.000000 0.000000 -0.000000 0.000000 2.309063 -0.000000 0.000000 -2.309063 -0.000000 -0.000000 0.000000 -0.000000 0.000000 0.000000 0.000000 0.000000 -2.309063 0.000000 0.000000 2.309063 -0.000000 0.000000 0.000000 8.520374 0.000000 0.000000 1.905768 0.000000 -0.000000 -4.658254 0.000000 0.000000 -0.000000 0.000000 0.000000 8.520374 0.000000 0.000000 1.905768 0.000000 -0.000000 -4.658254 0.000000 0.000000 -0.000000 0.000000
11.376246 89.017434 -8.018186 87.169756 -6.183462 -0.709719 -0.947056 1.775671 -0.162758 -0.552652 1.013746 -0.071450 -0.691040 1.267070 -0.090844 -0.552652 1.013746 -0.071450 2.276262 18.169936 -0.763140 2.580935 -6.556963 -1.325213 2.794054 1.869368 1.954801 2.193977 -0.476918 88.038875 -0.383718 0.659551 1.053114 0.016496 -2.170737 -1.461337 4.311059 1.718065 -0.000927 0.022296 -0.047994 -89.407810 -0.669817 4.313221 0.178097 0.135323 -3.065879 -0.157738 1.864499 9.808467 0.760847 -2.286687 1.152467 -0.835498 0.142983 -4.889430 1.132226 -0.004309 -0.040402 0.001014 -1.105926 7.445869 -1.125648 1.784035 5.384271 0.210164 -1.519893 -7.015950 2.429162 0.017487 0.050424 0.050461
11.377181 89.017409 -8.033115 87.170220 -6.175956 -0.714631 -0.954536 1.775038 -0.166687 -0.556944 1.013551 -0.072091 -0.696406 1.266825 -0.091657 -0.556944 1.013551 -0.072091 2.279105 18.184304 -0.767999 2.585232 -6.540930 -1.331077 2.809827 1.873788 1.949486 2.189824 -0.478769 88.040697 -0.385559 0.659438 1.058308 0.018334 -2.174204 -1.456000 4.307664 1.719412 -0.004115 0.032512 -0.052810 -89.406872 -0.655734 4.328396 0.196727 0.140457 -3.068572 -0.162466 1.854455 9.796689 0.750159 -2.283286 1.160510 -0.832748 0.148949 -4.892997 1.141941 -0.006006 -0.041326 0.000980 -1.110355 7.441401 -1.131062 1.792652 5.381669 0.206637 -1.521849 -7.017459 2.434276 0.015054 0.053984 0.048333
11.378545 89.017509 -8.050072 87.165624 -6.170282 -0.720632 -0.960608 1.774660 -0.169784 -0.560226 1.013651 -0.072778 -0.700511 1.266949 -0.092525 -0.560226 1.013651 -0.072778 2.280559 18.198745 -0.771124 2.587645 -6.524886 -1.334782 2.825197 1.880494 1.947066 2.185993 -0.482136 88.037845 -0.388734 0.661857 1.062734 0.023741 -2.172475 -1.453811 4.304355 1.722129 -0.007058 0.043597 -0.058042 -89.403488 -0.641892 4.345685 0.209843 0.146820 -3.071887 -0.163810 1.853155 9.786020 0.740229 -2.281851 1.168752 -0.829579 0.152396 -4.895022 1.152387 -0.006421 -0.043096 0.001306 -1.107791 7.442573 -1.136342 1.798508 5.373262 0.204341 -1.526581 -7.017163 2.440799 0.013546 0.057172 0.045902
11.379935 89.017714 -8.068284 87.159721 -6.164742 -0.728436 -0.965776 1.773627 -0.172229 -0.563030 1.013528 -0.073333 -0.704018 1.266793 -0.093226 -0.563030 1.013528 -0.073333 2.281263 18.214042 -0.772751 2.588919 -6.507943 -1.336730 2.837938 1.891283 1.946311 2.182783 -0.488616 88.033436 -0.394797 0.661950 1.063441 0.031599 -2.170407 -1.452310 4.298604 1.724564 -0.008386 0.050362 -0.060419 -89.399395 -0.629657 4.361871 0.217881 0.153246 -3.075306 -0.164735 1.855650 9.774486 0.732264 -2.281406 1.177947 -0.827427 0.153996 -4.895724 1.164198 -0.005946 -0.045826 0.001666 -1.099949 7.446790 -1.138443 1.804527 5.360061 0.199380 -1.537870 -7.016104 2.450296 0.012126 0.060910 0.043409
11.381171 89.018020 -8.086890 87.153620 -6.158618 -0.739247 -0.971399 1.773125 -0.173469 -0.566281 1.013750 -0.073400 -0.708082 1.267070 -0.093320 -0.566281 1.013750 -0.073400 2.283351 18.228034 -0.774031 2.591577 -6.492401 -1.338625 2.851624 1.901057 1.944064 2.180681 -0.496781 88.031770 -0.405017 0.659567 1.061283 0.040387 -2.167672 -1.452210 4.294182 1.722768 -0.008801 0.047805 -0.057966 -89.395673 -0.620838 4.373334 0.223990 0.154642 -3.077112 -0.166813 1.859558 9.761929 0.726965 -2.282328 1.186934 -0.824612 0.155453 -4.894139 1.175787 -0.005417 -0.049719 0.002089 -1.084642 7.450930 -1.135503 1.809122 5.346894 0.191701 -1.554467 -7.017614 2.461811 0.010680 0.065650 0.041355
11.382210 89.018426 -8.105437 87.144359 -6.151557 -0.752382 -0.977178 1.774051 -0.173366 -0.569875 1.014476 -0.072802 -0.712573 1.267978 -0.092582 -0.569875 1.014476 -0.072802 2.287582 18.239249 -0.776577 2.596786 -6.479833 -1.342348 2.870196 1.906994 1.938139 2.177357 -0.505218 88.034188 -0.415611 0.659457 1.057883 0.048279 -2.163813 -1.452212 4.293074 1.717780 -0.010595 0.041074 -0.053482 -89.391878 -0.618441 4.384404 0.227548 0.151231 -3.074446 -0.166463 1.866689 9.749157 0.723869 -2.282767 1.192971 -0.821269 0.157610 -4.889398 1.187383 -0.005200 -0.054095 0.002322 -1.056839 7.454183 -1.127506 1.810429 5.335007 0.182643 -1.576752 -7.021533 2.471866 0.009783 0.070399 0.041402
11.383139 89.018938 -8.124004 87.133164 -6.143511 -0.765530 -0.983003 1.776044 -0.173647 -0.573698 1.015483 -0.072153 -0.717351 1.269236 -0.091784 -0.573698 1.015483 -0.072153 2.292956 18.248439 -0.780298 2.603471 -6.469441 -1.347574 2.892252 1.910456 1.932230 2.170602 -0.513370 88.037737 -0.422834 0.664268 1.053765 0.052633 -2.161788 -1.448651 4.291082 1.711597 -0.014758 0.038285 -0.049557 -89.385553 -0.621865 4.400464 0.226197 0.147804 -3.068046 -0.161606 1.873902 9.737218 0.720703 -2.283357 1.194669 -0.818820 0.163414 -4.882331 1.200465 -0.004995 -0.058030 0.001926 -1.021247 7.457532 -1.117080 1.807859 5.321485 0.172137 -1.602528 -7.023984 2.479331 0.009221 0.073793 0.043715
11.384034 89.019571 -8.142537 87.123048 -6.134417 -0.778233 -0.989138 1.778219 -0.174884 -0.577736 1.016513 -0.071704 -0.722398 1.270524 -0.091235 -0.577736 1.016513 -0.071704 2.297444 18.256749 -0.784037 2.609206 -6.460047 -1.352610 2.911804 1.912051 1.929240 2.164213 -0.520603 88.037013 -0.428256 0.673201 1.055052 0.052158 -2.162533 -1.443670 4.286292 1.704920 -0.020689 0.039790 -0.044216 -89.375549 -0.628350 4.421272 0.220183 0.145135 -3.065483 -0.154381 1.877411 9.726484 0.716637 -2.286694 1.192023 -0.816545 0.174142 -4.873643 1.214874 -0.004749 -0.061460 0.000616 -0.986030 7.460986 -1.106308 1.805140 5.305326 0.159791 -1.626558 -7.023719 2.484405 0.008862 0.075885 0.048027
11.384679 89.020306 -8.160926 87.115017 -6.122719 -0.790809 -0.995458 1.779846 -0.176650 -0.581812 1.017181 -0.071560 -0.727492 1.271359 -0.091067 -0.581812 1.017181 -0.071560 2.300644 18.264474 -0.787162 2.613420 -6.451350 -1.356696 2.926556 1.912217 1.927319 2.158938 -0.529189 88.033339 -0.435276 0.687231 1.062048 0.050409 -2.164159 -1.442281 4.279253 1.698011 -0.025526 0.041324 -0.036654 -89.365579 -0.635880 4.441562 0.212883 0.143095 -3.068368 -0.147083 1.876472 9.714390 0.711881 -2.291151 1.186985 -0.813577 0.186563 -4.864081 1.229576 -0.004200 -0.064643 -0.001175 -0.954993 7.462687 -1.094838 1.806045 5.286706 0.145353 -1.650778 -7.021367 2.486848 0.008661 0.077564 0.054125
11.385101 89.021135 -8.179225 87.105935 -6.108620 -0.802470 -1.000102 1.780935 -0.178534 -0.584898 1.017593 -0.071825 -0.731351 1.271872 -0.091408 -0.584898 1.017593 -0.071825 2.302986 18.271870 -0.789345 2.616496 -6.443060 -1.359583 2.937324 1.913504 1.922515 2.150973 -0.540338 88.032043 -0.441503 0.706409 1.068973 0.049889 -2.162560 -1.442925 4.268934 1.691859 -0.028301 0.041663 -0.030148 -89.359104 -0.640791 4.457594 0.207344 0.142948 -3.074428 -0.142146 1.876748 9.699991 0.706455 -2.296417 1.181172 -0.809879 0.197931 -4.854231 1.243592 -0.002823 -0.067534 -0.002549 -0.926227 7.464144 -1.083219 1.810492 5.263453 0.129892 -1.678273 -7.016008 2.487837 0.008556 0.078897 0.060077
11.385623 89.022064 -8.197268 87.092429 -6.094386 -0.814009 -1.001941 1.781833 -0.179867 -0.586359 1.018050 -0.071887 -0.733178 1.272443 -0.091491 -0.586359 1.018050 -0.071887 2.305051 18.279066 -0.790152 2.618956 -6.435024 -1.360945 2.945080 1.917789 1.913199 2.141042 -0.552862 88.032293 -0.444744 0.727484 1.076240 0.050415 -2.156967 -1.443821 4.255576 1.686690 -0.030228 0.043729 -0.025550 -89.356270 -0.640241 4.470166 0.203138 0.144489 -3.082243 -0.141233 1.885021 9.684936 0.702982 -2.305024 1.175149 -0.807705 0.209388 -4.843660 1.257326 -0.001324 -0.070621 -0.002907 -0.896484 7.468191 -1.070962 1.818134 5.235587 0.112285 -1.704485 -7.008523 2.491426 0.008305 0.080001 0.063605
11.386383 89.023055 -8.214865 87.076934 -6.081081 -0.827421 -1.002623 1.783124 -0.180569 -0.587188 1.018889 -0.071503 -0.734213 1.273493 -0.091014 -0.587188 1.018889 -0.071503 2.306606 18.285052 -0.789461 2.620511 -6.428369 -1.360597 2.955331 1.924043 1.904980 2.130747 -0.567614 88.030437 -0.447455 0.748396 1.083148 0.051943 -2.153222 -1.445830 4.242384 1.679296 -0.031123 0.046783 -0.019420 -89.354855 -0.636780 4.479482 0.198556 0.147911 -3.088419 -0.142656 1.896835 9.669853 0.702556 -2.313771 1.170311 -0.806569 0.221039 -4.832469 1.269824 -0.000192 -0.074549 -0.001935 -0.865062 7.473263 -1.056005 1.827894 5.208707 0.092189 -1.729279 -7.002825 2.498226 0.007430 0.081556 0.065042
11.387069 89.023993 -8.232241 87.060318 -6.066809 -0.842505 -1.002743 1.784900 -0.181616 -0.587842 1.020042 -0.071240 -0.735030 1.274934 -0.090688 -0.587842 1.020042 -0.071240 2.307318 18.289027 -0.786463 2.620612 -6.424006 -1.357599 2.971028 1.929365 1.903412 2.120000 -0.584308 88.026252 -0.451137 0.768222 1.085952 0.053443 -2.151816 -1.446721 4.230001 1.667739 -0.030600 0.050090 -0.011511 -89.352117 -0.633087 4.486541 0.193402 0.153763 -3.090278 -0.143319 1.907369 9.652219 0.703144 -2.318709 1.167994 -0.804283 0.231367 -4.821821 1.280790 0.000929 -0.078708 -0.000523 -0.827414 7.475486 -1.038318 1.838541 5.186361 0.072719 -1.760721 -7.000315 2.504930 0.006033 0.083433 0.066019
11.387408 89.024759 -8.249823 87.043089 -6.049618 -0.857939 -1.003202 1.786438 -0.183468 -0.588849 1.020853 -0.071186 -0.736289 1.275948 -0.090625 -0.588849 1.020853 -0.071186 2.308939 18.291526 -0.781016 2.621098 -6.421291 -1.352208 2.989585 1.931812 1.903900 2.110631 -0.598704 88.023280 -0.454940 0.786619 1.084574 0.054727 -2.150044 -1.446620 4.219589 1.654919 -0.029899 0.054478 -0.003367 -89.348117 -0.630488 4.493389 0.188964 0.159639 -3.084732 -0.143572 1.916297 9.629859 0.704423 -2.323910 1.168544 -0.803682 0.242750 -4.812663 1.293968 0.001921 -0.082391 -0.000339 -0.781085 7.473515 -1.019222 1.848116 5.166685 0.054550 -1.800599 -6.998923 2.510470 0.004510 0.085179 0.067329
11.387571 89.025293 -8.267948 87.028145 -6.030110 -0.872955 -1.005093 1.787379 -0.185641 -0.590755 1.021256 -0.071154 -0.738671 1.276452 -0.090592 -0.590755 1.021256 -0.071154 2.311580 18.292726 -0.774136 2.622327 -6.420005 -1.345529 3.008553 1.932704 1.900960 2.105363 -0.609334 88.023437 -0.458583 0.801357 1.082148 0.058323 -2.150037 -1.448295 4.212616 1.643261 -0.029533 0.059059 0.004575 -89.343069 -0.630010 4.502008 0.184218 0.163593 -3.073412 -0.143477 1.921954 9.603982 0.705762 -2.330756 1.171689 -0.806048 0.255648 -4.805279 1.310903 0.002388 -0.085568 -0.001571 -0.732651 7.470125 -1.000662 1.851929 5.144795 0.035842 -1.837837 -6.996248 2.515291 0.003197 0.087197 0.069346
11.387369 89.025524 -8.286708 87.014894 -6.006969 -0.887743 -1.007144 1.787596 -0.188330 -0.592537 1.021334 -0.071371 -0.740899 1.276548 -0.090868 -0.592537 1.021334 -0.071371 2.313902 18.292246 -0.765597 2.622814 -6.420617 -1.337011 3.024800 1.931970 1.896957 2.105903 -0.618866 88.024876 -0.465352 0.810273 1.081638 0.066595 -2.152283 -1.449617 4.205346 1.632057 -0.027824 0.064168 0.010639 -89.335627 -0.628781 4.514970 0.178889 0.163938 -3.060580 -0.140069 1.925206 9.574136 0.705716 -2.335492 1.175612 -0.807983 0.266950 -4.799069 1.329085 0.002593 -0.087815 -0.003265 -0.690021 7.464824 -0.983122 1.849898 5.118627 0.014745 -1.864284 -6.992164 2.521307 0.001831 0.090281 0.070952
